<svg xmlns="http://www.w3.org/2000/svg" xmlns:xlink="http://www.w3.org/1999/xlink" version="1.1" x="0px" y="0px" viewBox="0 0 100 125" enable-background="new 0 0 100 100" xml:space="preserve"><path fill-rule="evenodd" clip-rule="evenodd" d="M53.6,33.1c-1.133,1.066-2.467,1.6-4,1.6c-1.566,0-2.916-0.533-4.049-1.6  c-1.102-1.135-1.65-2.484-1.65-4.051s0.549-2.9,1.65-4c1.133-1.133,2.482-1.699,4.049-1.699c1.533,0,2.867,0.566,4,1.699  c1.066,1.1,1.6,2.434,1.6,4S54.666,31.965,53.6,33.1z M50,5c12.434,0,23.051,4.398,31.85,13.199C90.617,26.965,95,37.566,95,50  c0,12.432-4.383,23.033-13.15,31.799C73.051,90.6,62.434,95,50,95c-12.4,0-23-4.4-31.801-13.201C9.4,73.033,5,62.432,5,50  c0-12.4,4.4-23,13.199-31.801C27,9.398,37.6,5,50,5z M73.4,26.648c-6.467-6.467-14.268-9.699-23.4-9.699s-16.916,3.232-23.35,9.699  C20.184,33.082,16.949,40.865,16.949,50c0,9.133,3.234,16.932,9.701,23.398c6.434,6.434,14.217,9.65,23.35,9.65  s16.934-3.217,23.4-9.65C79.867,66.932,83.1,59.133,83.1,50C83.1,40.865,79.867,33.082,73.4,26.648z M56.35,36.199  c0.6,0,1.201,0.217,1.801,0.65l10.949,11c0.467,0.467,0.701,1.016,0.701,1.65c0,0.699-0.234,1.266-0.701,1.699  c-0.467,0.467-1.033,0.699-1.699,0.699c-0.633,0-1.201-0.232-1.701-0.699l-8-8v-0.051h-0.1C57.5,43.049,57.35,43,57.15,43  c-0.533,0-0.801,0.232-0.801,0.699l0.051,0.1H56.35V73.1c0,0.799-0.25,1.467-0.75,2c-0.566,0.533-1.232,0.799-2,0.799  c-0.766,0-1.434-0.266-2-0.799c-0.5-0.533-0.75-1.201-0.75-2V58.35h-0.049c0-0.533-0.268-0.801-0.801-0.801  s-0.801,0.268-0.801,0.801V73.1c0,0.766-0.266,1.434-0.799,2c-0.533,0.533-1.184,0.799-1.951,0.799  c-0.766,0-1.416-0.266-1.949-0.799c-0.566-0.533-0.85-1.201-0.85-2V43.75c0-0.5-0.25-0.75-0.75-0.75c-0.133,0-0.334,0.066-0.6,0.199  L34.35,51.25v-0.051c-0.4,0.467-0.967,0.699-1.699,0.699c-0.633,0-1.184-0.232-1.65-0.699c-0.5-0.434-0.75-1-0.75-1.699  c0-0.635,0.25-1.184,0.75-1.65l10.9-10.951c0.533-0.434,1.117-0.648,1.75-0.648h12.6L56.35,36.199z"/><text x="0" y="115" fill="#000000" font-size="5px" font-weight="bold" font-family="'Helvetica Neue', Helvetica, Arial-Unicode, Arial, Sans-serif">Created by Saeful Muslim</text><text x="0" y="120" fill="#000000" font-size="5px" font-weight="bold" font-family="'Helvetica Neue', Helvetica, Arial-Unicode, Arial, Sans-serif">from the Noun Project</text></svg>