<?xml version="1.0" encoding="utf-8"?>
<svg version="1.1" id="Layer_1" xmlns="http://www.w3.org/2000/svg" xmlns:xlink="http://www.w3.org/1999/xlink" x="0px" y="0px"
	 viewBox="0 0 100 100" style="enable-background:new 0 0 100 100;" xml:space="preserve">
<style type="text/css">
	.st0{fill:#8BCC9A;}
	.st1{fill:#010101;}
</style>
<circle class="st0" cx="49.9" cy="50.1" r="47.9"/>
<g>
	<path class="st1" d="M46.9,48h3.5v-9.2c0-7.6-0.4-12.7-1.3-15.3c-0.8-2.6-2.5-3.9-4.9-3.9c-1.4,0-2.7,0.4-3.9,1.1
		c-1.2,0.8-1.7,1.8-1.7,3.1c0,1.3,0.2,2.7,0.7,4h3c0.6,1.7,1,3.7,1,6.1c0,2.4-1,4.4-3,6.1c-2,1.7-4.5,2.6-7.6,2.6
		c-6.9,0-10.3-3.3-10.3-10c0-9.8,8.4-14.8,25.1-14.8c9.5,0,16.1,1.6,19.7,4.9c3.6,3.2,5.5,9.2,5.5,17.8V65c0,4.2,1.2,6.2,3.5,6.2
		c2.7,0,4.3-4.1,4.8-12.4l1.8,0.1c-0.3,7-1.6,11.9-4,14.5c-2.3,2.6-6.1,4-11.4,4c-9.6,0-15.1-3-16.6-8.9c-1,3-2.6,5.3-4.7,6.7
		c-2.1,1.4-5.1,2.2-9.1,2.2c-11.8,0-17.8-4.8-17.8-14.5c0-5.7,2.3-9.6,6.8-11.7C30.6,49.1,37.5,48,46.9,48z M42.7,70.9
		c0.4,1.2,1.3,1.8,2.5,1.8c1.2,0,2.4-1,3.5-3.1c1.1-2,1.6-4.9,1.6-8.5V50h-0.8c-5,0-7.4,3.6-7.4,10.9v1.9
		C42.1,67,42.3,69.6,42.7,70.9z"/>
</g>
</svg>
